<svg width="51" height="51" viewBox="0 0 51 51" fill="none" xmlns="http://www.w3.org/2000/svg">
<path fill-rule="evenodd" clip-rule="evenodd" d="M31.875 8.5H19.125C17.9978 8.5 16.9168 8.94777 16.1198 9.7448C15.3228 10.5418 14.875 11.6228 14.875 12.75V38.25C14.875 39.3772 15.3228 40.4582 16.1198 41.2552C16.9168 42.0522 17.9978 42.5 19.125 42.5H31.875C33.0022 42.5 34.0832 42.0522 34.8802 41.2552C35.6772 40.4582 36.125 39.3772 36.125 38.25V12.75C36.125 11.6228 35.6772 10.5418 34.8802 9.7448C34.0832 8.94777 33.0022 8.5 31.875 8.5ZM19.125 4.25C16.8707 4.25 14.7087 5.14553 13.1146 6.73959C11.5205 8.33365 10.625 10.4957 10.625 12.75V38.25C10.625 40.5043 11.5205 42.6663 13.1146 44.2604C14.7087 45.8545 16.8707 46.75 19.125 46.75H31.875C34.1293 46.75 36.2913 45.8545 37.8854 44.2604C39.4795 42.6663 40.375 40.5043 40.375 38.25V12.75C40.375 10.4957 39.4795 8.33365 37.8854 6.73959C36.2913 5.14553 34.1293 4.25 31.875 4.25H19.125Z" fill="#F47E20"/>
<path d="M27.625 36.125H23.375C22.2014 36.125 21.25 37.0764 21.25 38.25C21.25 39.4236 22.2014 40.375 23.375 40.375H27.625C28.7986 40.375 29.75 39.4236 29.75 38.25C29.75 37.0764 28.7986 36.125 27.625 36.125Z" fill="#F47E20"/>
</svg>
