<svg width="42" height="15" viewBox="0 0 42 15" fill="none" xmlns="http://www.w3.org/2000/svg">
<path d="M0.986567 4.18628C0.963729 4.14376 0.938633 4.09739 0.911281 4.04718L0.908104 3.99935C0.911309 3.92709 0.936823 3.88937 0.984646 3.88619L1.11018 3.87785C1.32593 3.81149 1.53569 3.77554 1.73946 3.77001C1.86461 3.72567 2.0037 3.6804 2.15674 3.63421C3.08349 3.36451 3.86343 3.20462 4.49655 3.15456L4.6735 3.10678C4.81485 3.06537 5.10989 3.04777 5.55862 3.05399C5.743 3.05775 5.89816 3.04344 6.02409 3.01106L6.10062 2.98797C6.13994 2.97735 6.23507 2.90298 6.38601 2.76486L6.40952 2.7573C6.44911 2.75067 6.46797 2.76342 6.4661 2.79557L6.47166 2.87926C6.60093 3.37903 6.5316 3.87198 6.26368 4.3581L6.18716 4.3812C5.92547 4.35855 5.32928 4.39215 4.39859 4.48199C4.16427 4.44953 3.77785 4.44717 3.23931 4.47494C3.14621 4.94145 3.03971 5.89919 2.91981 7.34817C3.12094 7.30279 3.30705 7.27241 3.47815 7.25704L3.60728 7.21244C3.70878 7.17367 3.92013 7.16164 4.24133 7.17633C4.37789 7.18327 4.4912 7.17174 4.58127 7.14174L4.63388 7.12023C4.66125 7.11041 4.7384 7.21736 4.86534 7.44109C4.99202 7.66084 4.96324 8.01099 4.77901 8.49156L4.7264 8.51307C4.53247 8.48592 4.10166 8.50853 3.434 8.5809C3.2839 8.55084 3.04904 8.54043 2.72943 8.54965C2.53839 9.71115 2.35128 11.685 2.1681 14.4711L2.09356 14.5241L2.00987 14.5296C1.46389 14.5659 1.1231 13.7139 0.987492 11.9737C0.890281 10.7513 0.854275 9.66691 0.879476 8.72057L0.86752 8.72136L0.84641 8.67473L0.842836 8.62093C0.836218 8.5213 0.853908 8.42606 0.895907 8.33521C0.906861 8.0783 0.924455 7.83096 0.948689 7.59318L0.926452 7.25842C0.90898 6.9954 0.970351 6.44294 1.11057 5.60104C1.16724 5.24903 1.18777 4.95546 1.17215 4.72033L1.1618 4.65497C1.05845 4.66584 0.951114 4.67697 0.839793 4.68837L0.812705 4.64214L0.809131 4.58834C0.799866 4.44885 0.859011 4.31483 0.986567 4.18628ZM10.5706 9.01949C8.68495 9.49699 7.65027 9.46765 7.46655 8.93147C7.31442 8.50927 7.20763 7.89593 7.14619 7.09144L7.23196 5.03831C7.2889 4.69028 7.30943 4.39671 7.29355 4.1576L7.28441 4.02011C7.27991 3.95236 7.19613 3.7758 7.03308 3.49042L7.0295 3.43662C7.03297 3.36834 7.05862 3.33262 7.10644 3.32944L7.23198 3.3211C8.0094 3.09334 8.71899 3.23033 9.36075 3.73208L9.37068 3.88153C9.26721 4.37274 9.04199 5.74265 8.69501 7.99127C8.74177 7.97215 8.79039 7.9509 8.84088 7.92754C9.42912 7.8044 9.99809 7.69256 10.5478 7.592C10.5583 7.14699 10.5869 6.7348 10.6338 6.35542L10.6155 6.08044C10.6015 5.86922 10.6638 5.42078 10.8023 4.73509C10.8635 4.45083 10.8878 4.21306 10.875 4.02177L10.8675 3.90819C10.8638 3.8524 10.7862 3.70944 10.6349 3.47933L10.6321 3.43748C10.6324 3.38143 10.6564 3.35181 10.7042 3.34863L10.8238 3.34069C11.5675 3.14719 12.2429 3.25243 12.8502 3.6564L12.8581 3.77596C12.7526 4.17525 12.6248 5.08437 12.4749 6.50331C12.4156 6.69538 12.3547 6.95361 12.2922 7.27799C12.391 7.25941 12.4775 7.23565 12.5516 7.20671L12.6218 7.17804C12.6608 7.16343 12.7973 7.13836 13.0311 7.10281C13.2689 7.06701 13.3341 7.537 13.2268 8.51281L13.1507 8.54189C12.9509 8.54715 12.5918 8.59502 12.0735 8.68549C11.9587 9.54971 11.8444 10.6301 11.7304 11.9265L11.655 11.9676L11.5773 11.9727C11.0553 12.0074 10.7394 11.3199 10.6297 9.91019C10.6054 9.60359 10.5857 9.30669 10.5706 9.01949ZM15.2633 12.7186C15.2603 12.7948 15.2553 12.8692 15.2481 12.9418L15.1735 12.9947L15.0899 13.0003C14.5439 13.0366 14.206 12.2284 14.0762 10.5759C13.9462 8.91935 13.9377 7.52693 14.0509 6.39862L14.0295 6.07582C14.0131 5.82874 14.0763 5.30417 14.2191 4.50213C14.2769 4.16606 14.2983 3.88644 14.2835 3.66326L14.2744 3.52577C14.2699 3.45803 14.1866 3.28943 14.0246 3.02L14.0214 2.97217C14.0252 2.90788 14.051 2.87415 14.0988 2.87097L14.2243 2.86263C14.7193 2.72167 15.1877 2.72258 15.6295 2.86536C15.7145 2.75964 15.7909 2.70453 15.8587 2.70003C16.1894 2.67806 16.6813 2.82151 17.3343 3.13038C18.9247 4.05346 19.6863 5.00357 19.6191 5.98072L19.6163 6.02894C19.5835 6.49945 19.2848 6.94359 18.7201 7.36136C18.6085 7.42882 18.5103 7.48738 18.4255 7.53704C19.2599 7.98597 19.767 8.41861 19.9468 8.83497C20.1358 9.27073 20.0977 9.84166 19.8324 10.5478C19.4752 11.1359 19.1403 11.5184 18.8279 11.6953C18.8427 11.7383 18.5571 11.9574 17.9709 12.3526C17.2909 12.782 16.7178 13.0122 16.2515 13.0432C15.8968 13.0668 15.5674 12.9586 15.2633 12.7186ZM16.274 3.89129C16.1883 4.46939 16.092 5.36842 15.9849 6.58838C15.8333 7.13883 15.6796 8.16976 15.5238 9.68116C15.5865 9.66098 15.6538 9.64851 15.7255 9.64375L16.12 9.61754C16.1482 9.61967 16.1692 9.63429 16.183 9.66139L16.1965 9.68451C16.2539 9.8248 16.1818 10.1258 15.9803 10.5875C15.9237 10.8194 15.8936 11.0296 15.8901 11.2179L15.9686 11.4048C16.0044 11.4625 16.1137 11.5113 16.2965 11.5512C16.5556 11.534 17.1029 11.2174 17.9386 10.6015C18.5318 10.0097 18.7456 9.52319 18.5802 9.1419C18.4671 8.88523 18.0879 8.72028 17.4425 8.64707C16.797 8.56987 16.4708 8.38939 16.4639 8.10565C16.4611 7.82164 16.7357 7.49718 17.2879 7.13227C17.84 6.76736 18.1154 6.27274 18.114 5.64839C18.1443 5.26211 17.8218 4.83522 17.1463 4.36773C16.815 4.14156 16.5243 3.98275 16.274 3.89129ZM20.7761 7.50099C21.0406 6.54275 21.3092 5.76438 21.5816 5.16587L21.6598 4.8965C21.722 4.68822 21.9186 4.27288 22.2495 3.65048C22.371 3.43026 22.6816 3.13543 23.1814 2.76599C23.6813 2.39656 24.1672 2.27021 24.6393 2.38696L24.6827 2.49815C24.7023 2.91315 24.8585 3.81941 25.1515 5.21694C25.1484 6.01371 25.472 8.14372 26.1224 11.607L26.0606 11.6711L25.9845 11.7002C25.478 11.91 24.9913 11.2718 24.5243 9.78578C24.347 9.22516 24.1889 8.68327 24.0501 8.16012C23.9061 8.16168 23.748 8.16217 23.5759 8.1616C23.2672 8.09404 22.6683 8.05777 21.7794 8.05277C21.4386 9.00807 20.9968 10.2823 20.4542 11.8754L20.3892 11.8917L20.3342 11.8774C19.9618 11.754 19.9744 10.8285 20.372 9.10093C20.4557 8.73512 20.5407 8.38723 20.6269 8.05728C20.5711 8.06099 20.5132 8.06283 20.4531 8.06282L20.4204 8.02296L20.4173 7.97514C20.3849 7.78915 20.5045 7.6311 20.7761 7.50099ZM23.7642 7.0203C23.6631 6.5827 23.5771 6.16211 23.5063 5.75853L23.3996 5.50744C23.3754 5.445 23.2885 5.10053 23.1388 4.47402C23.0159 5.15466 22.8205 5.678 22.5526 6.04404C22.4614 6.23823 22.3104 6.61652 22.0996 7.1789C22.6424 7.09481 23.1201 7.05508 23.5327 7.05969L23.6869 7.03143C23.7066 7.02613 23.7324 7.02241 23.7642 7.0203ZM27.7112 4.05622C28.7271 3.14014 29.4885 2.8514 29.9953 3.18999C30.6409 3.1471 31.2508 4.94589 31.8248 8.58634C32.0575 8.89511 32.4574 9.28084 33.0245 9.74352L33.0296 9.82123C32.9985 9.95539 32.8355 10.0323 32.5406 10.0519L32.3493 10.0646C31.616 10.1133 31.0647 9.88771 30.6952 9.38788C30.3298 8.88779 30.095 7.94471 29.9909 6.55865C29.8868 5.17258 29.7925 4.35427 29.7078 4.10372C29.6231 3.85316 29.1844 3.93834 28.3918 4.35925C27.5981 4.82426 27.2107 6.61523 27.2296 9.73217C27.0256 9.91384 26.7156 10.0985 26.2998 10.2863C25.977 10.3077 25.7691 10.1014 25.6762 9.66724C26.0884 6.10938 26.2768 4.06544 26.2416 3.5354C26.2331 3.40787 26.179 3.1653 26.0792 2.80767L26.0716 2.69409C26.0762 2.64176 26.1004 2.61413 26.1442 2.61122L26.2578 2.60367C26.5806 2.58223 26.9618 2.86713 27.4013 3.45837C27.5641 3.85984 27.6674 4.05913 27.7112 4.05622ZM33.6417 5.8298C33.6588 5.42438 33.6879 5.04818 33.7289 4.70122L33.7106 4.42624C33.6966 4.21502 33.7648 3.76618 33.9154 3.0797C33.9766 2.79544 34.0008 2.55766 33.9881 2.36637L33.9805 2.25279C33.9768 2.197 33.8953 2.05431 33.736 1.82473L33.7332 1.78288C33.7374 1.72656 33.7635 1.69681 33.8113 1.69364L33.9368 1.6853C34.7164 1.48941 35.4237 1.59253 36.0589 1.99466L36.0668 2.11421C35.9573 2.51376 35.8215 3.42341 35.6597 4.84315C35.6264 4.94543 35.5925 5.06777 35.558 5.21016C36.2073 5.10299 37.1135 3.89198 38.2767 1.57714L38.268 1.44563C38.2635 1.37788 38.4475 1.19554 38.82 0.8986C39.1963 0.597411 39.7045 0.685738 40.3447 1.16358L40.3542 1.30705C40.2492 1.77435 39.2059 3.30268 37.2244 5.89203C38.9344 7.65175 40.0454 9.22111 40.5572 10.6001L40.4823 10.6471L40.3986 10.6527C39.8527 10.6889 39.2892 10.4021 38.7083 9.79226C38.1312 9.17814 37.6053 8.55261 37.1307 7.91567C36.6558 7.27474 36.0612 6.72983 35.3469 6.28093C35.1904 7.23998 35.0286 8.56966 34.8613 10.27L34.786 10.311L34.7023 10.3165C34.1563 10.3528 33.8265 9.66622 33.7129 8.25678C33.6581 7.55192 33.633 6.90313 33.6376 6.31041C33.6095 6.30827 33.5815 6.30813 33.5536 6.30999L33.5201 6.25817L33.5105 6.20477C33.4853 6.06634 33.5291 5.94135 33.6417 5.8298Z" fill="#F9EC68"/>
</svg>
