<svg width="31" height="26" viewBox="0 0 31 26" fill="none" xmlns="http://www.w3.org/2000/svg">
<path d="M12.2423 0.0580581C1.44231 -1.14194 7.07564 16.5581 11.2423 25.5581C27.2423 10.558 28.7423 5.55811 26.2423 3.05811C24.2423 1.05811 19.0756 4.55811 16.7423 6.55811C16.3423 2.95811 13.5756 0.724741 12.2423 0.0580581Z" fill="#FFBD59"/>
<path d="M0.435349 8.72228C0.418455 8.69083 0.39989 8.65653 0.379655 8.61938L0.377305 8.584C0.379677 8.53054 0.398551 8.50264 0.433929 8.50029L0.526794 8.49412C0.686395 8.44502 0.841569 8.41843 0.992315 8.41434C1.08489 8.38154 1.18779 8.34805 1.301 8.31388C1.98658 8.11437 2.56354 7.99609 3.0319 7.95906L3.16281 7.92371C3.26737 7.89307 3.48563 7.88006 3.81758 7.88466C3.95398 7.88744 4.06876 7.87686 4.16193 7.8529L4.21853 7.83582C4.24762 7.82796 4.318 7.77295 4.42966 7.67077L4.44705 7.66518C4.47634 7.66027 4.49029 7.66971 4.48891 7.69349L4.49302 7.7554C4.58865 8.12511 4.53736 8.48978 4.33916 8.84939L4.28256 8.86648C4.08897 8.84973 3.64793 8.87458 2.95944 8.94104C2.7861 8.91702 2.50024 8.91528 2.10185 8.93583C2.03298 9.28093 1.95419 9.98943 1.86549 11.0613C2.01428 11.0278 2.15196 11.0053 2.27853 10.9939L2.37406 10.9609C2.44914 10.9322 2.60549 10.9233 2.8431 10.9342C2.94412 10.9393 3.02795 10.9308 3.09458 10.9086L3.1335 10.8927C3.15375 10.8854 3.21082 10.9646 3.30473 11.1301C3.39844 11.2926 3.37715 11.5517 3.24086 11.9072L3.20194 11.9231C3.05848 11.903 2.73978 11.9197 2.24587 11.9733C2.13483 11.951 1.96109 11.9433 1.72466 11.9501C1.58333 12.8094 1.44492 14.2695 1.3094 16.3306L1.25426 16.3698L1.19235 16.3739C0.788459 16.4007 0.536353 15.7705 0.436033 14.4831C0.36412 13.5788 0.337485 12.7767 0.356127 12.0766L0.347283 12.0772L0.331666 12.0427L0.329023 12.0029C0.324127 11.9292 0.337213 11.8587 0.368283 11.7915C0.376386 11.6015 0.389402 11.4185 0.407329 11.2426L0.390879 10.9949C0.377954 10.8004 0.423354 10.3917 0.527079 9.76887C0.569004 9.50847 0.584189 9.2913 0.572635 9.11736L0.564982 9.06901C0.488526 9.07705 0.409123 9.08528 0.326771 9.09371L0.306732 9.05951L0.304089 9.01971C0.297235 8.91653 0.340988 8.81738 0.435349 8.72228Z" fill="white"/>
<path d="M7.52525 12.2977C6.13033 12.651 5.36492 12.6292 5.22901 12.2326C5.11647 11.9203 5.03747 11.4665 4.99201 10.8714L5.05547 9.35258C5.09759 9.09513 5.11277 8.87796 5.10102 8.70107L5.09427 8.59936C5.09094 8.54924 5.02896 8.41863 4.90834 8.20751L4.90569 8.16771C4.90826 8.1172 4.92723 8.09078 4.96261 8.08843L5.05547 8.08226C5.63059 7.91376 6.15552 8.01511 6.63026 8.38629L6.63761 8.49684C6.56107 8.86022 6.39446 9.87363 6.13777 11.5371C6.17237 11.5229 6.20834 11.5072 6.24568 11.4899C6.68084 11.3988 7.10175 11.3161 7.5084 11.2417C7.51615 10.9125 7.53735 10.6076 7.57201 10.3269L7.55849 10.1235C7.54811 9.96726 7.59418 9.63552 7.6967 9.12828C7.74196 8.91799 7.75988 8.74209 7.75048 8.60058L7.7449 8.51656C7.74216 8.47529 7.6848 8.36954 7.57281 8.19931L7.57075 8.16835C7.57096 8.12688 7.58875 8.10497 7.62413 8.10262L7.71257 8.09675C8.26272 7.9536 8.7624 8.03145 9.21162 8.3303L9.21749 8.41874C9.13939 8.71412 9.04489 9.38666 8.93399 10.4363C8.89013 10.5784 8.84508 10.7695 8.79883 11.0094C8.87195 10.9957 8.93593 10.9781 8.99076 10.9567L9.04266 10.9355C9.07155 10.9247 9.17248 10.9061 9.34544 10.8798C9.52135 10.8533 9.56961 11.201 9.49023 11.9229L9.43392 11.9444C9.28612 11.9483 9.02049 11.9837 8.63703 12.0506C8.55217 12.69 8.46756 13.4892 8.38321 14.4482L8.32749 14.4786L8.27 14.4824C7.8838 14.5081 7.65014 13.9995 7.56902 12.9566C7.55099 12.7298 7.5364 12.5102 7.52525 12.2977Z" fill="white"/>
<path d="M10.9967 15.0342C10.9946 15.0906 10.9908 15.1456 10.9855 15.1993L10.9304 15.2385L10.8684 15.2426C10.4646 15.2694 10.2146 14.6716 10.1186 13.4491C10.0224 12.2236 10.0161 11.1936 10.0999 10.3589L10.084 10.1201C10.0719 9.93731 10.1186 9.54926 10.2243 8.95594C10.267 8.70732 10.2829 8.50047 10.2719 8.33538L10.2652 8.23367C10.2619 8.18355 10.2003 8.05883 10.0804 7.85951L10.0781 7.82413C10.0808 7.77657 10.0999 7.75162 10.1353 7.74927L10.2282 7.7431C10.5943 7.63882 10.9408 7.63949 11.2676 7.74511C11.3306 7.66691 11.3871 7.62614 11.4372 7.62281C11.6819 7.60656 12.0457 7.71268 12.5288 7.94117C13.7053 8.62403 14.2687 9.32689 14.219 10.0497L14.2169 10.0854C14.1927 10.4335 13.9717 10.762 13.554 11.0711C13.4714 11.121 13.3988 11.1643 13.3361 11.2011C13.9533 11.5332 14.3284 11.8532 14.4614 12.1612C14.6013 12.4836 14.5731 12.9059 14.3768 13.4283C14.1125 13.8634 13.8648 14.1463 13.6337 14.2771C13.6447 14.309 13.4334 14.4711 12.9997 14.7634C12.4967 15.0811 12.0727 15.2514 11.7278 15.2743C11.4654 15.2918 11.2217 15.2117 10.9967 15.0342ZM11.7445 8.50406C11.6811 8.93172 11.6098 9.59679 11.5305 10.4993C11.4184 10.9065 11.3047 11.6691 11.1895 12.7872C11.2359 12.7723 11.2856 12.763 11.3387 12.7595L11.6305 12.7401C11.6514 12.7417 11.6669 12.7525 11.6771 12.7726L11.6871 12.7897C11.7296 12.8935 11.6762 13.1161 11.5272 13.4577C11.4853 13.6292 11.463 13.7847 11.4604 13.924L11.5185 14.0623C11.545 14.105 11.6259 14.1411 11.7611 14.1706C11.9527 14.1578 12.3576 13.9237 12.9759 13.468C13.4146 13.0303 13.5728 12.6703 13.4505 12.3883C13.3668 12.1984 13.0863 12.0764 12.6089 12.0222C12.1313 11.9651 11.89 11.8316 11.8849 11.6217C11.8828 11.4116 12.086 11.1716 12.4945 10.9016C12.9029 10.6317 13.1066 10.2658 13.1056 9.8039C13.128 9.51814 12.8894 9.20235 12.3897 8.85651C12.1447 8.6892 11.9296 8.57172 11.7445 8.50406Z" fill="white"/>
<path d="M15.0749 11.1744C15.2706 10.4655 15.4693 9.88971 15.6708 9.44695L15.7286 9.24768C15.7747 9.0936 15.9201 8.78635 16.1649 8.32592C16.2547 8.16301 16.4845 7.94491 16.8543 7.67161C17.2241 7.39831 17.5835 7.30485 17.9328 7.39121L17.9649 7.47347C17.9794 7.78047 18.095 8.45089 18.3117 9.48473C18.3094 10.0741 18.5488 11.6499 19.0299 14.2119L18.9842 14.2593L18.9279 14.2808C18.5532 14.436 18.1932 13.9639 17.8477 12.8646C17.7165 12.4499 17.5996 12.049 17.4969 11.662C17.3904 11.6631 17.2734 11.6635 17.1461 11.6631C16.9177 11.6131 16.4747 11.5863 15.8171 11.5826C15.565 12.2893 15.2382 13.2319 14.8368 14.4104L14.7887 14.4225L14.7481 14.4119C14.4725 14.3206 14.4818 13.636 14.776 12.358C14.8379 12.0873 14.9008 11.83 14.9645 11.5859C14.9233 11.5887 14.8804 11.59 14.836 11.59L14.8118 11.5605L14.8095 11.5251C14.7855 11.3876 14.874 11.2706 15.0749 11.1744ZM17.2854 10.8188C17.2106 10.4951 17.147 10.1839 17.0946 9.88538L17.0157 9.69963C16.9978 9.65344 16.9335 9.39861 16.8227 8.93515C16.7318 9.43866 16.5873 9.8258 16.3891 10.0966C16.3217 10.2402 16.21 10.5201 16.054 10.9361C16.4555 10.8739 16.8089 10.8445 17.1142 10.8479L17.2282 10.827C17.2428 10.8231 17.2619 10.8204 17.2854 10.8188Z" fill="white"/>
<path d="M20.2053 8.62607C20.9568 7.94839 21.52 7.73479 21.895 7.98527C22.3726 7.95354 22.8237 9.28421 23.2484 11.9773C23.4205 12.2057 23.7163 12.4911 24.1358 12.8333L24.1396 12.8908C24.1166 12.9901 23.996 13.0469 23.7779 13.0614L23.6364 13.0708C23.0939 13.1069 22.686 12.94 22.4127 12.5702C22.1424 12.2003 21.9687 11.5026 21.8917 10.4773C21.8147 9.45191 21.7449 8.84656 21.6822 8.66121C21.6196 8.47586 21.2951 8.53887 20.7087 8.85024C20.1216 9.19424 19.835 10.5191 19.849 12.8249C19.698 12.9593 19.4687 13.096 19.1611 13.2348C18.9223 13.2507 18.7686 13.0981 18.6999 12.7769C19.0047 10.1449 19.1442 8.63289 19.1181 8.24079C19.1118 8.14645 19.0718 7.967 18.998 7.70244L18.9924 7.61842C18.9957 7.5797 19.0136 7.55927 19.046 7.55711L19.1301 7.55153C19.3689 7.53567 19.6508 7.74642 19.976 8.1838C20.0964 8.4808 20.1728 8.62822 20.2053 8.62607Z" fill="white"/>
<path d="M24.5925 9.9381C24.6051 9.63818 24.6266 9.35989 24.6569 9.10322L24.6434 8.8998C24.633 8.74355 24.6835 8.41151 24.7949 7.90368C24.8401 7.69339 24.8581 7.51749 24.8487 7.37598L24.8431 7.29196C24.8403 7.25069 24.78 7.14513 24.6621 6.9753L24.6601 6.94434C24.6632 6.90267 24.6825 6.88067 24.7179 6.87832L24.8108 6.87215C25.3874 6.72724 25.9107 6.80352 26.3806 7.101L26.3864 7.18944C26.3054 7.48502 26.205 8.15794 26.0852 9.20822C26.0607 9.28388 26.0356 9.37438 26.01 9.47972C26.4904 9.40043 27.1608 8.50457 28.0212 6.79214L28.0148 6.69485C28.0114 6.64473 28.1476 6.50984 28.4232 6.29018C28.7015 6.06737 29.0775 6.13271 29.5511 6.4862L29.5581 6.59233C29.4804 6.93803 28.7086 8.06863 27.2428 9.98413C28.5078 11.2859 29.3296 12.4469 29.7083 13.467L29.6529 13.5018L29.591 13.5059C29.1871 13.5327 28.7702 13.3205 28.3405 12.8694C27.9136 12.4151 27.5245 11.9523 27.1734 11.4811C26.8221 11.007 26.3823 10.6039 25.8539 10.2718C25.7381 10.9813 25.6184 11.965 25.4947 13.2228L25.4389 13.2531L25.377 13.2572C24.9731 13.2841 24.7292 12.7761 24.6451 11.7335C24.6045 11.2121 24.586 10.7321 24.5894 10.2936C24.5686 10.2921 24.5479 10.292 24.5272 10.2933L24.5025 10.255L24.4954 10.2155C24.4768 10.1131 24.5091 10.0206 24.5925 9.9381Z" fill="white"/>
</svg>
