<svg width="32" height="31" viewBox="0 0 32 31" fill="none" xmlns="http://www.w3.org/2000/svg">
<path d="M1.32281 2.87037C1.2719 2.75219 1.2159 2.62326 1.15481 2.48359V2.35467C1.17518 2.16128 1.24645 2.06459 1.36863 2.06459H1.68934C2.24932 1.92492 2.78894 1.86583 3.3082 1.88732C3.634 1.79062 3.99545 1.69393 4.39252 1.59723C6.79535 1.03856 8.80619 0.74848 10.425 0.726993L10.8832 0.6303C11.2497 0.544349 12.0032 0.549721 13.1435 0.646415C13.6118 0.68939 14.0089 0.678646 14.3347 0.614184L14.5333 0.565838C14.6351 0.544349 14.8896 0.361705 15.2969 0.0179061L15.358 0.00179061C15.4598 -0.00895306 15.5056 0.0286498 15.4954 0.114599V0.340218C15.7398 1.70467 15.4801 3.01541 14.7165 4.27243L14.518 4.32077C13.8562 4.21333 12.3341 4.19722 9.95161 4.27243C9.36108 4.1435 8.37857 4.06829 7.00407 4.04681C6.68845 5.28234 6.25573 7.83397 5.70593 11.7017C6.22519 11.6158 6.70372 11.5674 7.14152 11.5567L7.47751 11.46C7.74223 11.374 8.28185 11.3794 9.09636 11.4761C9.44253 11.5191 9.73271 11.5083 9.96688 11.4439L10.1043 11.3955C10.1756 11.374 10.3538 11.6749 10.6389 12.298C10.9239 12.9104 10.7916 13.8451 10.2418 15.1021L10.1043 15.1505C9.61562 15.043 8.51602 15.0269 6.80553 15.1021C6.42882 14.9947 5.8332 14.9248 5.01868 14.8926C4.33652 17.9761 3.5271 23.2405 2.5904 30.6859L2.39186 30.8148H2.17805C0.78319 30.8148 0.0603057 28.4673 0.00939829 23.7723C-0.0313276 20.474 0.0603057 17.557 0.284298 15.0215H0.253754L0.207937 14.8926V14.7476C0.207937 14.479 0.269026 14.2265 0.391204 13.9901C0.462474 13.3025 0.549016 12.6418 0.650831 12.0079V11.1054C0.650831 10.3964 0.900277 8.92446 1.39917 6.68976C1.6028 5.75506 1.70461 4.97077 1.70461 4.33689L1.68934 4.15961C1.42462 4.17036 1.14972 4.1811 0.864642 4.19185L0.803553 4.06292V3.91788C0.803553 3.54185 0.976638 3.19268 1.32281 2.87037Z" fill="#FF914D"/>
<path d="M24.8839 17.5517C20.007 18.4971 17.3801 18.2339 17.0034 16.762C16.6878 15.6017 16.5198 13.9364 16.4994 11.7662L17.0645 6.27076C17.2681 5.3468 17.37 4.56251 17.37 3.91788V3.54722C17.37 3.36458 17.1867 2.87574 16.8202 2.0807V1.93566C16.8405 1.75302 16.9118 1.6617 17.034 1.6617H17.3547C19.3706 1.18897 21.1524 1.68319 22.7 3.14433V3.54722C22.3538 4.84721 21.5495 8.48397 20.287 14.4575C20.4091 14.4145 20.5364 14.3662 20.6688 14.3124C22.1858 14.0868 23.6519 13.8881 25.0672 13.7162C25.169 12.5236 25.3115 11.4224 25.4948 10.4125V9.67115C25.4948 9.10173 25.729 7.90918 26.1973 6.09349C26.4009 5.34143 26.5027 4.70755 26.5027 4.19185V3.88565C26.5027 3.73524 26.3297 3.33772 25.9835 2.69309V2.58029C25.9937 2.42987 26.0599 2.35467 26.182 2.35467H26.4875C28.4118 1.96789 30.1121 2.37078 31.5884 3.56334V3.88565C31.2524 4.93854 30.7739 7.35588 30.1528 11.1377C29.9695 11.6426 29.771 12.3249 29.5572 13.1844C29.8117 13.1521 30.0357 13.1038 30.2292 13.0393L30.4124 12.9748C30.5142 12.9426 30.8655 12.8996 31.4662 12.8459C32.0771 12.7922 32.1636 14.0653 31.7258 16.6653L31.5273 16.7298C31.0182 16.7083 30.0968 16.7728 28.763 16.9232C28.3252 19.2223 27.8518 22.1016 27.3427 25.5611L27.1442 25.6578H26.9456C25.6119 25.6578 24.9246 23.7562 24.8839 19.9529C24.8737 19.1256 24.8737 18.3252 24.8839 17.5517Z" fill="#FF914D"/>
</svg>
