<svg width="51" height="51" viewBox="0 0 51 51" fill="none" xmlns="http://www.w3.org/2000/svg">
<path fill-rule="evenodd" clip-rule="evenodd" d="M40.375 19.125H10.625V42.5H40.375V19.125ZM10.625 14.875C9.49783 14.875 8.41683 15.3228 7.6198 16.1198C6.82277 16.9168 6.375 17.9978 6.375 19.125V42.5C6.375 43.6272 6.82277 44.7082 7.6198 45.5052C8.41683 46.3022 9.49783 46.75 10.625 46.75H40.375C41.5022 46.75 42.5832 46.3022 43.3802 45.5052C44.1772 44.7082 44.625 43.6272 44.625 42.5V19.125C44.625 17.9978 44.1772 16.9168 43.3802 16.1198C42.5832 15.3228 41.5022 14.875 40.375 14.875H10.625Z" fill="#F47E20"/>
<path fill-rule="evenodd" clip-rule="evenodd" d="M21.25 26.4307V44.625H29.75V25.738C29.5006 25.5518 29.2595 25.3547 29.0275 25.1472C27.7393 23.9818 26.7174 22.5526 26.0312 20.9567C25.3452 22.5526 24.3233 23.9819 23.035 25.1472C22.5038 25.6232 21.9087 26.0588 21.25 26.4307Z" fill="#F47E20"/>
<path fill-rule="evenodd" clip-rule="evenodd" d="M22.1255 11.9574C22.882 12.903 23.256 13.9273 23.3516 14.5754C23.072 14.6522 22.7872 14.709 22.4995 14.7454C21.8705 14.8325 21.1012 14.875 20.1875 14.875C19.108 14.875 18.241 14.4989 17.6949 14.0314C17.1572 13.5703 17 13.1049 17 12.75C17 12.3951 17.1572 11.9297 17.6949 11.4686C18.241 11.0011 19.108 10.625 20.1875 10.625C20.4786 10.625 21.2372 10.846 22.1255 11.9574ZM20.9164 19.1186C20.6763 19.1207 20.434 19.125 20.1875 19.125C16.0799 19.125 12.75 16.2711 12.75 12.75C12.75 9.22888 16.0799 6.375 20.1875 6.375C22.27 6.375 24.1506 7.65212 25.5 9.37125C26.8494 7.65212 28.73 6.375 30.8125 6.375C34.9201 6.375 38.25 9.22888 38.25 12.75C38.25 16.1755 35.0986 18.9677 31.1483 19.1186C31.3608 19.3736 31.5966 19.6201 31.8559 19.8496C32.997 20.8696 34.5971 21.5985 36.8879 21.2734C37.4364 21.2129 37.987 21.3682 38.4231 21.7065C38.8592 22.0448 39.1466 22.5394 39.2244 23.0858C39.3023 23.6322 39.1645 24.1874 38.8403 24.634C38.516 25.0806 38.0308 25.3836 37.4871 25.4788C33.83 26.0015 31.0016 24.7839 29.0254 23.0222C27.738 21.8566 26.7168 20.4274 26.0312 18.8318C25.3451 20.4276 24.3232 21.8569 23.035 23.0222C21.0609 24.786 18.2325 26.0015 14.5754 25.4788C14.0194 25.3971 13.5183 25.0985 13.1819 24.6483C12.8455 24.1981 12.7012 23.633 12.7804 23.0767C12.8596 22.5203 13.156 22.018 13.6047 21.6796C14.0535 21.3413 14.6179 21.1944 15.1746 21.2713C17.4675 21.5985 19.0655 20.8675 20.2066 19.8496C20.4659 19.6201 20.7018 19.3715 20.9164 19.1165V19.1186ZM34 12.75C34 13.1049 33.8428 13.5703 33.3051 14.0314C32.759 14.4989 31.892 14.875 30.8125 14.875C29.8966 14.875 29.1295 14.8325 28.5005 14.7475C28.2134 14.7104 27.9294 14.6528 27.6505 14.5754C27.744 13.9273 28.118 12.903 28.8745 11.9574C29.7628 10.846 30.5214 10.625 30.8125 10.625C31.892 10.625 32.759 11.0011 33.3051 11.4686C33.8428 11.9297 34 12.3951 34 12.75Z" fill="#F47E20"/>
</svg>
