<svg width="51" height="51" viewBox="0 0 51 51" fill="none" xmlns="http://www.w3.org/2000/svg">
<path d="M13.6042 36.7625C14.4249 36.7649 15.2378 36.6047 15.9961 36.291C16.7544 35.9773 17.443 35.5164 18.0221 34.935L24.3929 28.5621C24.6187 28.3457 24.9194 28.2249 25.2322 28.2249C25.545 28.2249 25.8457 28.3457 26.0716 28.5621L32.4679 34.9584C33.0462 35.5396 33.7341 36.0003 34.4917 36.314C35.2493 36.6277 36.0615 36.7881 36.8815 36.7859H38.1395L30.0645 44.8566C29.4652 45.4562 28.7536 45.9319 27.9704 46.2564C27.1872 46.5809 26.3478 46.7479 25.5 46.7479C24.6522 46.7479 23.8128 46.5809 23.0296 46.2564C22.2464 45.9319 21.5348 45.4562 20.9355 44.8566L12.8286 36.7625H13.5936H13.6042ZM36.8815 14.212C36.0612 14.2101 35.2487 14.371 34.4911 14.6854C33.7334 14.9999 33.0457 15.4616 32.4679 16.0437L26.0801 22.44C25.8572 22.6612 25.5559 22.7854 25.2418 22.7854C24.9277 22.7854 24.6264 22.6612 24.4035 22.44L18.0327 16.0692C17.4539 15.4874 16.7654 15.0263 16.007 14.7126C15.2486 14.3989 14.4355 14.2388 13.6149 14.2417H12.8286L20.9355 6.14123C22.1461 4.93079 23.788 4.25079 25.5 4.25079C27.212 4.25079 28.8538 4.93079 30.0645 6.14123L38.1395 14.212H36.8815Z" fill="#F47E20"/>
<path d="M6.14122 20.9334L10.965 16.1117H13.6042C14.7623 16.1117 15.8716 16.5707 16.694 17.3867L23.0668 23.7575C23.3511 24.0421 23.6886 24.2679 24.0601 24.422C24.4317 24.5761 24.83 24.6554 25.2322 24.6554C25.6345 24.6554 26.0327 24.5761 26.4043 24.422C26.7759 24.2679 27.1134 24.0421 27.3976 23.7575L33.796 17.3612C34.618 16.5463 35.7282 16.0881 36.8857 16.0862H40.0158L44.8566 20.9291C45.4567 21.5281 45.9328 22.2396 46.2576 23.0229C46.5825 23.8061 46.7497 24.6457 46.7497 25.4936C46.7497 26.3415 46.5825 27.1811 46.2576 27.9644C45.9328 28.7476 45.4567 29.4591 44.8566 30.0581L40.0137 34.9031H36.8815C35.7247 34.9007 34.6154 34.4426 33.7938 33.6281L27.3976 27.2276C26.8142 26.6691 26.0377 26.3574 25.2301 26.3574C24.4225 26.3574 23.646 26.6691 23.0626 27.2276L16.6918 33.5962C15.8698 34.4112 14.7597 34.8693 13.6021 34.8712H10.965L6.14122 30.0624C5.54079 29.4633 5.06443 28.7517 4.7394 27.9683C4.41437 27.1848 4.24707 26.345 4.24707 25.4968C4.24707 24.6486 4.41437 23.8088 4.7394 23.0254C5.06443 22.2419 5.54079 21.5303 6.14122 20.9312V20.9334Z" fill="#F47E20"/>
</svg>
