<svg width="51" height="51" viewBox="0 0 51 51" fill="none" xmlns="http://www.w3.org/2000/svg">
<path fill-rule="evenodd" clip-rule="evenodd" d="M11.3645 6.375C11.3645 5.81141 11.5884 5.27091 11.9869 4.8724C12.3854 4.47388 12.9259 4.25 13.4895 4.25H35.6639C36.2275 4.25 36.768 4.47388 37.1665 4.8724C37.565 5.27091 37.7889 5.81141 37.7889 6.375V11.5345H43.0546C43.6182 11.5345 44.1587 11.7584 44.5572 12.1569C44.9557 12.5554 45.1796 13.0959 45.1796 13.6595V31.875C45.1796 32.4386 44.9557 32.9791 44.5572 33.3776C44.1587 33.7761 43.6182 34 43.0546 34H37.7889V42.5H46.75V46.75H35.7914L35.6639 46.7543H13.4895C13.447 46.7543 13.4045 46.7542 13.362 46.75H4.25V42.5H11.3645V6.375ZM33.5389 42.5H15.6145V22.7673H33.5389V42.5ZM15.6145 8.5V18.5172H23.8085L30.2494 12.1656L33.2775 15.1491L29.8605 18.5172H33.5367V8.5H15.6166H15.6145ZM37.7889 15.7845V29.75H40.9296V15.7845H37.7889Z" fill="#F47E20"/>
</svg>
