<svg width="51" height="51" viewBox="0 0 51 51" fill="none" xmlns="http://www.w3.org/2000/svg">
<path d="M4.25 42.5C4.25 41.9364 4.47388 41.3959 4.8724 40.9974C5.27091 40.5989 5.81141 40.375 6.375 40.375H44.625C45.1886 40.375 45.7291 40.5989 46.1276 40.9974C46.5261 41.3959 46.75 41.9364 46.75 42.5C46.75 43.0636 46.5261 43.6041 46.1276 44.0026C45.7291 44.4011 45.1886 44.625 44.625 44.625H6.375C5.81141 44.625 5.27091 44.4011 4.8724 44.0026C4.47388 43.6041 4.25 43.0636 4.25 42.5Z" fill="#F47E20"/>
<path fill-rule="evenodd" clip-rule="evenodd" d="M47.8826 8.78264C46.2931 6.60239 43.2225 5.77789 40.5981 6.82764L28.2582 11.7683L22.8097 8.9994C21.6385 8.41113 20.3505 8.09227 19.0401 8.06617C17.7297 8.04006 16.43 8.30737 15.2362 8.84852L10.3339 11.0904C8.72737 11.8256 8.67637 13.906 10.2489 14.7029L15.9736 17.6141L14.7135 18.3069L7.1995 16.0161C5.89687 15.6188 4.46462 16.0671 3.70387 17.1126L2.63712 18.5789C1.74037 19.8071 2.05062 21.4646 3.34262 22.3508L8.279 25.738L6.90837 26.4924C5.20837 27.4231 4.9215 29.5694 6.32187 30.8486L7.89862 32.2936C8.39241 32.7299 9.0068 33.0062 9.6608 33.0863C10.3148 33.1663 10.9777 33.0463 11.5621 32.742L22.0596 27.2531V36.125H25.2577C29.087 36.125 32.3956 33.677 33.1967 30.2536L34.0149 26.7623C34.1236 26.5706 34.195 26.36 34.2253 26.1418L34.3145 25.4788L35.0264 22.4443L46.0062 16.4178C48.8984 14.8283 49.7526 11.3518 47.8826 8.78264ZM33.4772 16.6388C34.3294 16.7365 34.9924 17.3039 35.1921 18.02L43.9174 13.2324C44.8226 12.7351 45.0904 11.6471 44.5039 10.8439C44.0066 10.1618 43.0461 9.90252 42.2237 10.2319L29.0126 15.521L21.0077 19.1824L15.2001 22.3699L6.65125 19.7625L6.545 19.907L15.5444 26.0823L10.1107 29.0658L10.2212 29.1656L22.0617 22.9755V21.267C22.0617 20.2406 22.9712 19.4098 24.0911 19.4098C25.0665 19.4098 25.8804 20.0388 26.0759 20.876L26.1205 20.8548V32.3255C27.6505 32.0216 28.8872 30.923 29.2272 29.4738L30.3089 24.8583L31.212 18.2495C31.3501 17.2338 32.3637 16.5113 33.4772 16.6388ZM20.0812 15.453L23.8 13.753L20.8377 12.2443C20.252 11.9503 19.608 11.7911 18.9528 11.7782C18.2976 11.7653 17.6478 11.8992 17.051 12.1699L15.2469 12.9965L20.0812 15.453Z" fill="#F47E20"/>
</svg>
